<mxfile host="app.diagrams.net" agent="Mozilla/5.0 (Windows NT 10.0; Win64; x64) AppleWebKit/537.36 (KHTML, like Gecko) Chrome/137.0.0.0 Safari/537.36" version="27.2.0">
  <diagram name="第 1 页" id="gCAACnPZ3ZFmU67YCKop">
    <mxGraphModel dx="2040" dy="631" grid="1" gridSize="10" guides="1" tooltips="1" connect="1" arrows="1" fold="1" page="1" pageScale="1" pageWidth="827" pageHeight="1169" math="0" shadow="0">
      <root>
        <mxCell id="0" />
        <mxCell id="1" parent="0" />
        <mxCell id="baQxyuVNijMae31wePMD-85" style="edgeStyle=orthogonalEdgeStyle;rounded=0;hachureGap=4;orthogonalLoop=1;jettySize=auto;html=1;exitX=0.5;exitY=0;exitDx=0;exitDy=0;entryX=0.5;entryY=1;entryDx=0;entryDy=0;fontFamily=Architects Daughter;fontSource=https%3A%2F%2Ffonts.googleapis.com%2Fcss%3Ffamily%3DArchitects%2BDaughter;fillColor=#dae8fc;strokeColor=#6c8ebf;" edge="1" parent="1" source="baQxyuVNijMae31wePMD-84" target="baQxyuVNijMae31wePMD-71">
          <mxGeometry relative="1" as="geometry" />
        </mxCell>
        <mxCell id="baQxyuVNijMae31wePMD-84" value="" style="rounded=1;whiteSpace=wrap;html=1;hachureGap=4;fontFamily=Architects Daughter;fontSource=https%3A%2F%2Ffonts.googleapis.com%2Fcss%3Ffamily%3DArchitects%2BDaughter;dashed=1;" vertex="1" parent="1">
          <mxGeometry x="12.5" y="720" width="225" height="60" as="geometry" />
        </mxCell>
        <mxCell id="baQxyuVNijMae31wePMD-86" style="edgeStyle=orthogonalEdgeStyle;rounded=0;hachureGap=4;orthogonalLoop=1;jettySize=auto;html=1;exitX=0.5;exitY=0;exitDx=0;exitDy=0;entryX=0.5;entryY=1;entryDx=0;entryDy=0;fontFamily=Architects Daughter;fontSource=https%3A%2F%2Ffonts.googleapis.com%2Fcss%3Ffamily%3DArchitects%2BDaughter;fillColor=#dae8fc;strokeColor=#6c8ebf;" edge="1" parent="1" source="baQxyuVNijMae31wePMD-83" target="baQxyuVNijMae31wePMD-70">
          <mxGeometry relative="1" as="geometry" />
        </mxCell>
        <mxCell id="baQxyuVNijMae31wePMD-83" value="" style="rounded=1;whiteSpace=wrap;html=1;hachureGap=4;fontFamily=Architects Daughter;fontSource=https%3A%2F%2Ffonts.googleapis.com%2Fcss%3Ffamily%3DArchitects%2BDaughter;dashed=1;" vertex="1" parent="1">
          <mxGeometry x="265" y="720" width="225" height="60" as="geometry" />
        </mxCell>
        <mxCell id="baQxyuVNijMae31wePMD-87" style="edgeStyle=orthogonalEdgeStyle;rounded=0;hachureGap=4;orthogonalLoop=1;jettySize=auto;html=1;exitX=0.5;exitY=0;exitDx=0;exitDy=0;entryX=0.5;entryY=1;entryDx=0;entryDy=0;fontFamily=Architects Daughter;fontSource=https%3A%2F%2Ffonts.googleapis.com%2Fcss%3Ffamily%3DArchitects%2BDaughter;fillColor=#dae8fc;strokeColor=#6c8ebf;" edge="1" parent="1" source="baQxyuVNijMae31wePMD-82" target="baQxyuVNijMae31wePMD-72">
          <mxGeometry relative="1" as="geometry" />
        </mxCell>
        <mxCell id="baQxyuVNijMae31wePMD-82" value="" style="rounded=1;whiteSpace=wrap;html=1;hachureGap=4;fontFamily=Architects Daughter;fontSource=https%3A%2F%2Ffonts.googleapis.com%2Fcss%3Ffamily%3DArchitects%2BDaughter;dashed=1;" vertex="1" parent="1">
          <mxGeometry x="582.5" y="720" width="225" height="60" as="geometry" />
        </mxCell>
        <mxCell id="baQxyuVNijMae31wePMD-36" value="" style="rounded=1;whiteSpace=wrap;html=1;hachureGap=4;fontFamily=Architects Daughter;fontSource=https%3A%2F%2Ffonts.googleapis.com%2Fcss%3Ffamily%3DArchitects%2BDaughter;dashed=1;" vertex="1" parent="1">
          <mxGeometry x="465" y="530" width="120" height="85" as="geometry" />
        </mxCell>
        <mxCell id="baQxyuVNijMae31wePMD-12" style="edgeStyle=orthogonalEdgeStyle;rounded=0;hachureGap=4;orthogonalLoop=1;jettySize=auto;html=1;exitX=0.5;exitY=1;exitDx=0;exitDy=0;fontFamily=Architects Daughter;fontSource=https%3A%2F%2Ffonts.googleapis.com%2Fcss%3Ffamily%3DArchitects%2BDaughter;" edge="1" parent="1" source="baQxyuVNijMae31wePMD-1" target="baQxyuVNijMae31wePMD-2">
          <mxGeometry relative="1" as="geometry" />
        </mxCell>
        <mxCell id="baQxyuVNijMae31wePMD-1" value="&lt;font face=&quot;Helvetica&quot;&gt;&lt;b&gt;Display&lt;/b&gt;&lt;/font&gt;" style="rounded=1;whiteSpace=wrap;html=1;hachureGap=4;fontFamily=Architects Daughter;fontSource=https%3A%2F%2Ffonts.googleapis.com%2Fcss%3Ffamily%3DArchitects%2BDaughter;fillColor=#dae8fc;strokeColor=#6c8ebf;" vertex="1" parent="1">
          <mxGeometry x="320" y="200" width="90" height="30" as="geometry" />
        </mxCell>
        <mxCell id="baQxyuVNijMae31wePMD-13" style="edgeStyle=orthogonalEdgeStyle;rounded=0;hachureGap=4;orthogonalLoop=1;jettySize=auto;html=1;exitX=0.5;exitY=1;exitDx=0;exitDy=0;entryX=0.5;entryY=0;entryDx=0;entryDy=0;fontFamily=Architects Daughter;fontSource=https%3A%2F%2Ffonts.googleapis.com%2Fcss%3Ffamily%3DArchitects%2BDaughter;" edge="1" parent="1" source="baQxyuVNijMae31wePMD-2" target="baQxyuVNijMae31wePMD-5">
          <mxGeometry relative="1" as="geometry" />
        </mxCell>
        <mxCell id="baQxyuVNijMae31wePMD-15" style="rounded=0;hachureGap=4;orthogonalLoop=1;jettySize=auto;html=1;exitX=0.5;exitY=1;exitDx=0;exitDy=0;fontFamily=Architects Daughter;fontSource=https%3A%2F%2Ffonts.googleapis.com%2Fcss%3Ffamily%3DArchitects%2BDaughter;entryX=0.5;entryY=0;entryDx=0;entryDy=0;" edge="1" parent="1" source="baQxyuVNijMae31wePMD-2" target="baQxyuVNijMae31wePMD-7">
          <mxGeometry relative="1" as="geometry" />
        </mxCell>
        <mxCell id="baQxyuVNijMae31wePMD-18" style="rounded=0;hachureGap=4;orthogonalLoop=1;jettySize=auto;html=1;exitX=0.5;exitY=1;exitDx=0;exitDy=0;entryX=0.5;entryY=0;entryDx=0;entryDy=0;fontFamily=Architects Daughter;fontSource=https%3A%2F%2Ffonts.googleapis.com%2Fcss%3Ffamily%3DArchitects%2BDaughter;" edge="1" parent="1" source="baQxyuVNijMae31wePMD-2" target="baQxyuVNijMae31wePMD-3">
          <mxGeometry relative="1" as="geometry">
            <Array as="points">
              <mxPoint x="205" y="360" />
            </Array>
          </mxGeometry>
        </mxCell>
        <mxCell id="baQxyuVNijMae31wePMD-2" value="&lt;font face=&quot;Helvetica&quot;&gt;&lt;b&gt;Mixer&lt;/b&gt;&lt;/font&gt;" style="rounded=1;whiteSpace=wrap;html=1;hachureGap=4;fontFamily=Architects Daughter;fontSource=https%3A%2F%2Ffonts.googleapis.com%2Fcss%3Ffamily%3DArchitects%2BDaughter;fillColor=#dae8fc;strokeColor=#6c8ebf;" vertex="1" parent="1">
          <mxGeometry x="320" y="270" width="90" height="30" as="geometry" />
        </mxCell>
        <mxCell id="baQxyuVNijMae31wePMD-19" style="edgeStyle=orthogonalEdgeStyle;rounded=0;hachureGap=4;orthogonalLoop=1;jettySize=auto;html=1;exitX=0;exitY=0.5;exitDx=0;exitDy=0;entryX=1;entryY=0.5;entryDx=0;entryDy=0;fontFamily=Architects Daughter;fontSource=https%3A%2F%2Ffonts.googleapis.com%2Fcss%3Ffamily%3DArchitects%2BDaughter;" edge="1" parent="1" source="baQxyuVNijMae31wePMD-3" target="baQxyuVNijMae31wePMD-4">
          <mxGeometry relative="1" as="geometry" />
        </mxCell>
        <mxCell id="baQxyuVNijMae31wePMD-32" style="edgeStyle=orthogonalEdgeStyle;rounded=0;hachureGap=4;orthogonalLoop=1;jettySize=auto;html=1;exitX=0.5;exitY=1;exitDx=0;exitDy=0;entryX=0.5;entryY=0;entryDx=0;entryDy=0;fontFamily=Architects Daughter;fontSource=https%3A%2F%2Ffonts.googleapis.com%2Fcss%3Ffamily%3DArchitects%2BDaughter;" edge="1" parent="1" source="baQxyuVNijMae31wePMD-3">
          <mxGeometry relative="1" as="geometry">
            <mxPoint x="205" y="530" as="targetPoint" />
          </mxGeometry>
        </mxCell>
        <mxCell id="baQxyuVNijMae31wePMD-3" value="&lt;font face=&quot;Helvetica&quot;&gt;&lt;b&gt;Datahub&lt;/b&gt;&lt;/font&gt;" style="rounded=1;whiteSpace=wrap;html=1;hachureGap=4;fontFamily=Architects Daughter;fontSource=https%3A%2F%2Ffonts.googleapis.com%2Fcss%3Ffamily%3DArchitects%2BDaughter;fillColor=#dae8fc;strokeColor=#6c8ebf;" vertex="1" parent="1">
          <mxGeometry x="160" y="455" width="90" height="30" as="geometry" />
        </mxCell>
        <mxCell id="baQxyuVNijMae31wePMD-4" value="&lt;font face=&quot;Helvetica&quot;&gt;&lt;b&gt;Maval&lt;/b&gt;&lt;/font&gt;" style="rounded=1;whiteSpace=wrap;html=1;hachureGap=4;fontFamily=Architects Daughter;fontSource=https%3A%2F%2Ffonts.googleapis.com%2Fcss%3Ffamily%3DArchitects%2BDaughter;fillColor=#dae8fc;strokeColor=#6c8ebf;" vertex="1" parent="1">
          <mxGeometry x="40" y="455" width="90" height="30" as="geometry" />
        </mxCell>
        <mxCell id="baQxyuVNijMae31wePMD-14" style="edgeStyle=orthogonalEdgeStyle;rounded=0;hachureGap=4;orthogonalLoop=1;jettySize=auto;html=1;exitX=0.5;exitY=1;exitDx=0;exitDy=0;entryX=0.5;entryY=0;entryDx=0;entryDy=0;fontFamily=Architects Daughter;fontSource=https%3A%2F%2Ffonts.googleapis.com%2Fcss%3Ffamily%3DArchitects%2BDaughter;" edge="1" parent="1" source="baQxyuVNijMae31wePMD-5" target="baQxyuVNijMae31wePMD-6">
          <mxGeometry relative="1" as="geometry" />
        </mxCell>
        <mxCell id="baQxyuVNijMae31wePMD-5" value="&lt;font face=&quot;Helvetica&quot;&gt;&lt;b&gt;Retrieval&lt;/b&gt;&lt;/font&gt;&lt;div&gt;&lt;font face=&quot;Helvetica&quot;&gt;&lt;b&gt;Server&lt;/b&gt;&lt;/font&gt;&lt;/div&gt;" style="rounded=1;whiteSpace=wrap;html=1;hachureGap=4;fontFamily=Architects Daughter;fontSource=https%3A%2F%2Ffonts.googleapis.com%2Fcss%3Ffamily%3DArchitects%2BDaughter;fillColor=#dae8fc;strokeColor=#6c8ebf;" vertex="1" parent="1">
          <mxGeometry x="320" y="350" width="90" height="80" as="geometry" />
        </mxCell>
        <mxCell id="baQxyuVNijMae31wePMD-6" value="&lt;font face=&quot;Helvetica&quot;&gt;&lt;b&gt;Scoring&lt;/b&gt;&lt;/font&gt;" style="rounded=1;whiteSpace=wrap;html=1;hachureGap=4;fontFamily=Architects Daughter;fontSource=https%3A%2F%2Ffonts.googleapis.com%2Fcss%3Ffamily%3DArchitects%2BDaughter;fillColor=#dae8fc;strokeColor=#6c8ebf;" vertex="1" parent="1">
          <mxGeometry x="320" y="455" width="90" height="30" as="geometry" />
        </mxCell>
        <mxCell id="baQxyuVNijMae31wePMD-16" style="edgeStyle=orthogonalEdgeStyle;rounded=0;hachureGap=4;orthogonalLoop=1;jettySize=auto;html=1;exitX=0.5;exitY=1;exitDx=0;exitDy=0;entryX=0.5;entryY=0;entryDx=0;entryDy=0;fontFamily=Architects Daughter;fontSource=https%3A%2F%2Ffonts.googleapis.com%2Fcss%3Ffamily%3DArchitects%2BDaughter;" edge="1" parent="1" source="baQxyuVNijMae31wePMD-7" target="baQxyuVNijMae31wePMD-8">
          <mxGeometry relative="1" as="geometry" />
        </mxCell>
        <mxCell id="baQxyuVNijMae31wePMD-7" value="&lt;font face=&quot;Helvetica&quot;&gt;&lt;b&gt;Ranking&lt;/b&gt;&lt;/font&gt;" style="rounded=1;whiteSpace=wrap;html=1;hachureGap=4;fontFamily=Architects Daughter;fontSource=https%3A%2F%2Ffonts.googleapis.com%2Fcss%3Ffamily%3DArchitects%2BDaughter;fillColor=#dae8fc;strokeColor=#6c8ebf;" vertex="1" parent="1">
          <mxGeometry x="480" y="350" width="90" height="30" as="geometry" />
        </mxCell>
        <mxCell id="baQxyuVNijMae31wePMD-17" style="edgeStyle=orthogonalEdgeStyle;rounded=0;hachureGap=4;orthogonalLoop=1;jettySize=auto;html=1;exitX=0.5;exitY=1;exitDx=0;exitDy=0;entryX=0.5;entryY=0;entryDx=0;entryDy=0;fontFamily=Architects Daughter;fontSource=https%3A%2F%2Ffonts.googleapis.com%2Fcss%3Ffamily%3DArchitects%2BDaughter;" edge="1" parent="1" source="baQxyuVNijMae31wePMD-8" target="baQxyuVNijMae31wePMD-9">
          <mxGeometry relative="1" as="geometry" />
        </mxCell>
        <mxCell id="baQxyuVNijMae31wePMD-8" value="&lt;font face=&quot;Helvetica&quot;&gt;&lt;b&gt;Prediction&lt;/b&gt;&lt;/font&gt;" style="rounded=1;whiteSpace=wrap;html=1;hachureGap=4;fontFamily=Architects Daughter;fontSource=https%3A%2F%2Ffonts.googleapis.com%2Fcss%3Ffamily%3DArchitects%2BDaughter;fillColor=#dae8fc;strokeColor=#6c8ebf;" vertex="1" parent="1">
          <mxGeometry x="480" y="400" width="90" height="30" as="geometry" />
        </mxCell>
        <mxCell id="baQxyuVNijMae31wePMD-35" style="edgeStyle=orthogonalEdgeStyle;rounded=0;hachureGap=4;orthogonalLoop=1;jettySize=auto;html=1;exitX=0.5;exitY=1;exitDx=0;exitDy=0;entryX=0.5;entryY=0;entryDx=0;entryDy=0;fontFamily=Architects Daughter;fontSource=https%3A%2F%2Ffonts.googleapis.com%2Fcss%3Ffamily%3DArchitects%2BDaughter;" edge="1" parent="1" source="baQxyuVNijMae31wePMD-9">
          <mxGeometry relative="1" as="geometry">
            <mxPoint x="525" y="530" as="targetPoint" />
          </mxGeometry>
        </mxCell>
        <mxCell id="baQxyuVNijMae31wePMD-9" value="&lt;font face=&quot;Helvetica&quot;&gt;&lt;b&gt;Datahub&lt;/b&gt;&lt;/font&gt;" style="rounded=1;whiteSpace=wrap;html=1;hachureGap=4;fontFamily=Architects Daughter;fontSource=https%3A%2F%2Ffonts.googleapis.com%2Fcss%3Ffamily%3DArchitects%2BDaughter;fillColor=#dae8fc;strokeColor=#6c8ebf;" vertex="1" parent="1">
          <mxGeometry x="480" y="455" width="90" height="30" as="geometry" />
        </mxCell>
        <mxCell id="baQxyuVNijMae31wePMD-25" value="&lt;font face=&quot;Helvetica&quot;&gt;&lt;b&gt;InferServer&lt;/b&gt;&lt;/font&gt;" style="rounded=1;whiteSpace=wrap;html=1;hachureGap=4;fontFamily=Architects Daughter;fontSource=https%3A%2F%2Ffonts.googleapis.com%2Fcss%3Ffamily%3DArchitects%2BDaughter;container=0;fillColor=#ffe6cc;strokeColor=#d79b00;" vertex="1" parent="1">
          <mxGeometry x="481" y="537.5" width="90" height="30" as="geometry" />
        </mxCell>
        <mxCell id="baQxyuVNijMae31wePMD-26" value="&lt;font face=&quot;Helvetica&quot;&gt;&lt;b&gt;PSI&lt;/b&gt;&lt;/font&gt;" style="rounded=1;whiteSpace=wrap;html=1;hachureGap=4;fontFamily=Architects Daughter;fontSource=https%3A%2F%2Ffonts.googleapis.com%2Fcss%3Ffamily%3DArchitects%2BDaughter;container=0;fillColor=#ffe6cc;strokeColor=#d79b00;" vertex="1" parent="1">
          <mxGeometry x="481" y="577.5" width="90" height="30" as="geometry" />
        </mxCell>
        <mxCell id="baQxyuVNijMae31wePMD-43" style="edgeStyle=orthogonalEdgeStyle;rounded=0;hachureGap=4;orthogonalLoop=1;jettySize=auto;html=1;exitX=0.5;exitY=0;exitDx=0;exitDy=0;entryX=0.5;entryY=1;entryDx=0;entryDy=0;fontFamily=Architects Daughter;fontSource=https%3A%2F%2Ffonts.googleapis.com%2Fcss%3Ffamily%3DArchitects%2BDaughter;" edge="1" parent="1" source="baQxyuVNijMae31wePMD-37" target="baQxyuVNijMae31wePMD-6">
          <mxGeometry relative="1" as="geometry" />
        </mxCell>
        <mxCell id="baQxyuVNijMae31wePMD-37" value="" style="rounded=1;whiteSpace=wrap;html=1;hachureGap=4;fontFamily=Architects Daughter;fontSource=https%3A%2F%2Ffonts.googleapis.com%2Fcss%3Ffamily%3DArchitects%2BDaughter;dashed=1;" vertex="1" parent="1">
          <mxGeometry x="305" y="530" width="120" height="85" as="geometry" />
        </mxCell>
        <mxCell id="baQxyuVNijMae31wePMD-38" value="&lt;font face=&quot;Helvetica&quot;&gt;&lt;b&gt;InferServer&lt;/b&gt;&lt;/font&gt;" style="rounded=1;whiteSpace=wrap;html=1;hachureGap=4;fontFamily=Architects Daughter;fontSource=https%3A%2F%2Ffonts.googleapis.com%2Fcss%3Ffamily%3DArchitects%2BDaughter;container=0;fillColor=#ffe6cc;strokeColor=#d79b00;" vertex="1" parent="1">
          <mxGeometry x="321" y="537.5" width="90" height="30" as="geometry" />
        </mxCell>
        <mxCell id="baQxyuVNijMae31wePMD-39" value="&lt;font face=&quot;Helvetica&quot;&gt;&lt;b&gt;PSI&lt;/b&gt;&lt;/font&gt;" style="rounded=1;whiteSpace=wrap;html=1;hachureGap=4;fontFamily=Architects Daughter;fontSource=https%3A%2F%2Ffonts.googleapis.com%2Fcss%3Ffamily%3DArchitects%2BDaughter;container=0;fillColor=#ffe6cc;strokeColor=#d79b00;" vertex="1" parent="1">
          <mxGeometry x="321" y="577.5" width="90" height="30" as="geometry" />
        </mxCell>
        <mxCell id="baQxyuVNijMae31wePMD-40" value="" style="rounded=1;whiteSpace=wrap;html=1;hachureGap=4;fontFamily=Architects Daughter;fontSource=https%3A%2F%2Ffonts.googleapis.com%2Fcss%3Ffamily%3DArchitects%2BDaughter;dashed=1;" vertex="1" parent="1">
          <mxGeometry x="145" y="530" width="120" height="85" as="geometry" />
        </mxCell>
        <mxCell id="baQxyuVNijMae31wePMD-41" value="&lt;font face=&quot;Helvetica&quot;&gt;&lt;b&gt;InferServer&lt;/b&gt;&lt;/font&gt;" style="rounded=1;whiteSpace=wrap;html=1;hachureGap=4;fontFamily=Architects Daughter;fontSource=https%3A%2F%2Ffonts.googleapis.com%2Fcss%3Ffamily%3DArchitects%2BDaughter;container=0;fillColor=#ffe6cc;strokeColor=#d79b00;" vertex="1" parent="1">
          <mxGeometry x="161" y="537.5" width="90" height="30" as="geometry" />
        </mxCell>
        <mxCell id="baQxyuVNijMae31wePMD-42" value="&lt;font face=&quot;Helvetica&quot;&gt;&lt;b&gt;PSI&lt;/b&gt;&lt;/font&gt;" style="rounded=1;whiteSpace=wrap;html=1;hachureGap=4;fontFamily=Architects Daughter;fontSource=https%3A%2F%2Ffonts.googleapis.com%2Fcss%3Ffamily%3DArchitects%2BDaughter;container=0;fillColor=#ffe6cc;strokeColor=#d79b00;" vertex="1" parent="1">
          <mxGeometry x="161" y="577.5" width="90" height="30" as="geometry" />
        </mxCell>
        <mxCell id="baQxyuVNijMae31wePMD-52" style="edgeStyle=orthogonalEdgeStyle;rounded=0;hachureGap=4;orthogonalLoop=1;jettySize=auto;html=1;exitX=1;exitY=0.5;exitDx=0;exitDy=0;entryX=0;entryY=0.5;entryDx=0;entryDy=0;fontFamily=Architects Daughter;fontSource=https%3A%2F%2Ffonts.googleapis.com%2Fcss%3Ffamily%3DArchitects%2BDaughter;startArrow=classic;startFill=1;" edge="1" parent="1" source="baQxyuVNijMae31wePMD-50" target="baQxyuVNijMae31wePMD-51">
          <mxGeometry relative="1" as="geometry" />
        </mxCell>
        <mxCell id="baQxyuVNijMae31wePMD-50" value="&lt;font face=&quot;Helvetica&quot;&gt;&lt;b&gt;TF&amp;nbsp;&lt;/b&gt;&lt;/font&gt;&lt;div&gt;&lt;font face=&quot;Helvetica&quot;&gt;&lt;b&gt;Trainer&lt;/b&gt;&lt;/font&gt;&lt;/div&gt;" style="rounded=1;whiteSpace=wrap;html=1;hachureGap=4;fontFamily=Architects Daughter;fontSource=https%3A%2F%2Ffonts.googleapis.com%2Fcss%3Ffamily%3DArchitects%2BDaughter;fillColor=#dae8fc;strokeColor=#6c8ebf;" vertex="1" parent="1">
          <mxGeometry x="25.5" y="730" width="90" height="40" as="geometry" />
        </mxCell>
        <mxCell id="baQxyuVNijMae31wePMD-51" value="&lt;font face=&quot;Helvetica&quot;&gt;&lt;b&gt;Train&lt;/b&gt;&lt;/font&gt;&lt;div&gt;&lt;font face=&quot;Helvetica&quot;&gt;&lt;b&gt;PS&lt;/b&gt;&lt;/font&gt;&lt;/div&gt;" style="rounded=1;whiteSpace=wrap;html=1;hachureGap=4;fontFamily=Architects Daughter;fontSource=https%3A%2F%2Ffonts.googleapis.com%2Fcss%3Ffamily%3DArchitects%2BDaughter;fillColor=#dae8fc;strokeColor=#6c8ebf;" vertex="1" parent="1">
          <mxGeometry x="135.5" y="730" width="90" height="40" as="geometry" />
        </mxCell>
        <mxCell id="baQxyuVNijMae31wePMD-53" style="edgeStyle=orthogonalEdgeStyle;rounded=0;hachureGap=4;orthogonalLoop=1;jettySize=auto;html=1;exitX=1;exitY=0.5;exitDx=0;exitDy=0;entryX=0;entryY=0.5;entryDx=0;entryDy=0;fontFamily=Architects Daughter;fontSource=https%3A%2F%2Ffonts.googleapis.com%2Fcss%3Ffamily%3DArchitects%2BDaughter;startArrow=classic;startFill=1;" edge="1" parent="1" source="baQxyuVNijMae31wePMD-54" target="baQxyuVNijMae31wePMD-55">
          <mxGeometry relative="1" as="geometry" />
        </mxCell>
        <mxCell id="baQxyuVNijMae31wePMD-54" value="&lt;font face=&quot;Helvetica&quot;&gt;&lt;b&gt;TF&amp;nbsp;&lt;/b&gt;&lt;/font&gt;&lt;div&gt;&lt;font face=&quot;Helvetica&quot;&gt;&lt;b&gt;Trainer&lt;/b&gt;&lt;/font&gt;&lt;/div&gt;" style="rounded=1;whiteSpace=wrap;html=1;hachureGap=4;fontFamily=Architects Daughter;fontSource=https%3A%2F%2Ffonts.googleapis.com%2Fcss%3Ffamily%3DArchitects%2BDaughter;fillColor=#dae8fc;strokeColor=#6c8ebf;" vertex="1" parent="1">
          <mxGeometry x="275.5" y="730" width="90" height="40" as="geometry" />
        </mxCell>
        <mxCell id="baQxyuVNijMae31wePMD-55" value="&lt;font face=&quot;Helvetica&quot;&gt;&lt;b&gt;Train&lt;/b&gt;&lt;/font&gt;&lt;div&gt;&lt;font face=&quot;Helvetica&quot;&gt;&lt;b&gt;PS&lt;/b&gt;&lt;/font&gt;&lt;/div&gt;" style="rounded=1;whiteSpace=wrap;html=1;hachureGap=4;fontFamily=Architects Daughter;fontSource=https%3A%2F%2Ffonts.googleapis.com%2Fcss%3Ffamily%3DArchitects%2BDaughter;fillColor=#dae8fc;strokeColor=#6c8ebf;" vertex="1" parent="1">
          <mxGeometry x="385.5" y="730" width="90" height="40" as="geometry" />
        </mxCell>
        <mxCell id="baQxyuVNijMae31wePMD-56" style="edgeStyle=orthogonalEdgeStyle;rounded=0;hachureGap=4;orthogonalLoop=1;jettySize=auto;html=1;exitX=1;exitY=0.5;exitDx=0;exitDy=0;entryX=0;entryY=0.5;entryDx=0;entryDy=0;fontFamily=Architects Daughter;fontSource=https%3A%2F%2Ffonts.googleapis.com%2Fcss%3Ffamily%3DArchitects%2BDaughter;startArrow=classic;startFill=1;" edge="1" parent="1" source="baQxyuVNijMae31wePMD-57" target="baQxyuVNijMae31wePMD-58">
          <mxGeometry relative="1" as="geometry" />
        </mxCell>
        <mxCell id="baQxyuVNijMae31wePMD-57" value="&lt;font face=&quot;Helvetica&quot;&gt;&lt;b&gt;TF&amp;nbsp;&lt;/b&gt;&lt;/font&gt;&lt;div&gt;&lt;font face=&quot;Helvetica&quot;&gt;&lt;b&gt;Trainer&lt;/b&gt;&lt;/font&gt;&lt;/div&gt;" style="rounded=1;whiteSpace=wrap;html=1;hachureGap=4;fontFamily=Architects Daughter;fontSource=https%3A%2F%2Ffonts.googleapis.com%2Fcss%3Ffamily%3DArchitects%2BDaughter;fillColor=#dae8fc;strokeColor=#6c8ebf;" vertex="1" parent="1">
          <mxGeometry x="597.5" y="730" width="90" height="40" as="geometry" />
        </mxCell>
        <mxCell id="baQxyuVNijMae31wePMD-58" value="&lt;font face=&quot;Helvetica&quot;&gt;&lt;b&gt;Train&lt;/b&gt;&lt;/font&gt;&lt;div&gt;&lt;font face=&quot;Helvetica&quot;&gt;&lt;b&gt;PS&lt;/b&gt;&lt;/font&gt;&lt;/div&gt;" style="rounded=1;whiteSpace=wrap;html=1;hachureGap=4;fontFamily=Architects Daughter;fontSource=https%3A%2F%2Ffonts.googleapis.com%2Fcss%3Ffamily%3DArchitects%2BDaughter;fillColor=#dae8fc;strokeColor=#6c8ebf;" vertex="1" parent="1">
          <mxGeometry x="707.5" y="730" width="90" height="40" as="geometry" />
        </mxCell>
        <mxCell id="baQxyuVNijMae31wePMD-60" value="&lt;font face=&quot;Helvetica&quot;&gt;&lt;b&gt;LTR&lt;/b&gt;&lt;/font&gt;&lt;br&gt;&lt;div&gt;&lt;font face=&quot;Helvetica&quot;&gt;&lt;b&gt;样本&lt;/b&gt;&lt;/font&gt;&lt;/div&gt;" style="rounded=1;whiteSpace=wrap;html=1;hachureGap=4;fontFamily=Architects Daughter;fontSource=https%3A%2F%2Ffonts.googleapis.com%2Fcss%3Ffamily%3DArchitects%2BDaughter;fillColor=#dae8fc;strokeColor=#6c8ebf;" vertex="1" parent="1">
          <mxGeometry x="45.5" y="830" width="90" height="40" as="geometry" />
        </mxCell>
        <mxCell id="baQxyuVNijMae31wePMD-61" value="&lt;font face=&quot;Helvetica&quot;&gt;&lt;b&gt;pCTR&lt;/b&gt;&lt;/font&gt;&lt;div&gt;&lt;font face=&quot;Helvetica&quot;&gt;&lt;b&gt;样本&lt;/b&gt;&lt;/font&gt;&lt;/div&gt;" style="rounded=1;whiteSpace=wrap;html=1;hachureGap=4;fontFamily=Architects Daughter;fontSource=https%3A%2F%2Ffonts.googleapis.com%2Fcss%3Ffamily%3DArchitects%2BDaughter;fillColor=#dae8fc;strokeColor=#6c8ebf;" vertex="1" parent="1">
          <mxGeometry x="355.5" y="830" width="90" height="40" as="geometry" />
        </mxCell>
        <mxCell id="baQxyuVNijMae31wePMD-62" value="&lt;font face=&quot;Helvetica&quot;&gt;&lt;b&gt;pCVR&lt;/b&gt;&lt;/font&gt;&lt;div&gt;&lt;font face=&quot;Helvetica&quot;&gt;&lt;b&gt;样本&lt;/b&gt;&lt;/font&gt;&lt;/div&gt;" style="rounded=1;whiteSpace=wrap;html=1;hachureGap=4;fontFamily=Architects Daughter;fontSource=https%3A%2F%2Ffonts.googleapis.com%2Fcss%3Ffamily%3DArchitects%2BDaughter;fillColor=#dae8fc;strokeColor=#6c8ebf;" vertex="1" parent="1">
          <mxGeometry x="485" y="830" width="90" height="40" as="geometry" />
        </mxCell>
        <mxCell id="baQxyuVNijMae31wePMD-63" value="&lt;font face=&quot;Helvetica&quot;&gt;&lt;b&gt;pDCVR&lt;/b&gt;&lt;/font&gt;&lt;div&gt;&lt;font face=&quot;Helvetica&quot;&gt;&lt;b&gt;样本&lt;/b&gt;&lt;/font&gt;&lt;/div&gt;" style="rounded=1;whiteSpace=wrap;html=1;hachureGap=4;fontFamily=Architects Daughter;fontSource=https%3A%2F%2Ffonts.googleapis.com%2Fcss%3Ffamily%3DArchitects%2BDaughter;fillColor=#dae8fc;strokeColor=#6c8ebf;" vertex="1" parent="1">
          <mxGeometry x="610" y="830" width="90" height="40" as="geometry" />
        </mxCell>
        <mxCell id="baQxyuVNijMae31wePMD-64" value="&lt;font face=&quot;Helvetica&quot;&gt;&lt;b&gt;GRs&lt;/b&gt;&lt;/font&gt;&lt;br&gt;&lt;div&gt;&lt;font face=&quot;Helvetica&quot;&gt;&lt;b&gt;样本&lt;/b&gt;&lt;/font&gt;&lt;/div&gt;" style="rounded=1;whiteSpace=wrap;html=1;hachureGap=4;fontFamily=Architects Daughter;fontSource=https%3A%2F%2Ffonts.googleapis.com%2Fcss%3Ffamily%3DArchitects%2BDaughter;fillColor=#dae8fc;strokeColor=#6c8ebf;" vertex="1" parent="1">
          <mxGeometry x="225.5" y="830" width="90" height="40" as="geometry" />
        </mxCell>
        <mxCell id="baQxyuVNijMae31wePMD-65" value="&lt;b&gt;&lt;font style=&quot;font-size: 15px;&quot;&gt;......&lt;/font&gt;&lt;/b&gt;" style="text;html=1;align=center;verticalAlign=middle;whiteSpace=wrap;rounded=0;fontFamily=Architects Daughter;fontSource=https%3A%2F%2Ffonts.googleapis.com%2Fcss%3Ffamily%3DArchitects%2BDaughter;" vertex="1" parent="1">
          <mxGeometry x="720" y="830" width="60" height="30" as="geometry" />
        </mxCell>
        <mxCell id="baQxyuVNijMae31wePMD-66" value="&lt;b&gt;&lt;font style=&quot;font-size: 15px;&quot;&gt;......&lt;/font&gt;&lt;/b&gt;" style="text;html=1;align=center;verticalAlign=middle;whiteSpace=wrap;rounded=0;fontFamily=Architects Daughter;fontSource=https%3A%2F%2Ffonts.googleapis.com%2Fcss%3Ffamily%3DArchitects%2BDaughter;" vertex="1" parent="1">
          <mxGeometry x="500" y="730" width="60" height="30" as="geometry" />
        </mxCell>
        <mxCell id="baQxyuVNijMae31wePMD-67" value="&lt;b&gt;&lt;font style=&quot;font-size: 15px;&quot;&gt;......&lt;/font&gt;&lt;/b&gt;" style="text;html=1;align=center;verticalAlign=middle;whiteSpace=wrap;rounded=0;fontFamily=Architects Daughter;fontSource=https%3A%2F%2Ffonts.googleapis.com%2Fcss%3Ffamily%3DArchitects%2BDaughter;" vertex="1" parent="1">
          <mxGeometry x="150.5" y="830" width="60" height="30" as="geometry" />
        </mxCell>
        <mxCell id="baQxyuVNijMae31wePMD-68" value="" style="strokeWidth=1;html=1;shape=mxgraph.flowchart.annotation_2;align=left;labelPosition=right;pointerEvents=1;hachureGap=4;fontFamily=Architects Daughter;fontSource=https%3A%2F%2Ffonts.googleapis.com%2Fcss%3Ffamily%3DArchitects%2BDaughter;" vertex="1" parent="1">
          <mxGeometry x="-30" y="640" width="30" height="220" as="geometry" />
        </mxCell>
        <mxCell id="baQxyuVNijMae31wePMD-75" style="edgeStyle=orthogonalEdgeStyle;rounded=0;hachureGap=4;orthogonalLoop=1;jettySize=auto;html=1;exitX=0.5;exitY=0;exitDx=0;exitDy=0;entryX=0.5;entryY=1;entryDx=0;entryDy=0;fontFamily=Architects Daughter;fontSource=https%3A%2F%2Ffonts.googleapis.com%2Fcss%3Ffamily%3DArchitects%2BDaughter;" edge="1" parent="1" source="baQxyuVNijMae31wePMD-70" target="baQxyuVNijMae31wePMD-37">
          <mxGeometry relative="1" as="geometry" />
        </mxCell>
        <mxCell id="baQxyuVNijMae31wePMD-70" value="&lt;font face=&quot;Helvetica&quot;&gt;&lt;b&gt;PushServer&lt;/b&gt;&lt;/font&gt;" style="rounded=1;whiteSpace=wrap;html=1;hachureGap=4;fontFamily=Architects Daughter;fontSource=https%3A%2F%2Ffonts.googleapis.com%2Fcss%3Ffamily%3DArchitects%2BDaughter;container=0;fillColor=#dae8fc;strokeColor=#6c8ebf;" vertex="1" parent="1">
          <mxGeometry x="335" y="672" width="90" height="30" as="geometry" />
        </mxCell>
        <mxCell id="baQxyuVNijMae31wePMD-74" style="edgeStyle=orthogonalEdgeStyle;rounded=0;hachureGap=4;orthogonalLoop=1;jettySize=auto;html=1;exitX=0.5;exitY=0;exitDx=0;exitDy=0;entryX=0.5;entryY=1;entryDx=0;entryDy=0;fontFamily=Architects Daughter;fontSource=https%3A%2F%2Ffonts.googleapis.com%2Fcss%3Ffamily%3DArchitects%2BDaughter;" edge="1" parent="1" source="baQxyuVNijMae31wePMD-71" target="baQxyuVNijMae31wePMD-40">
          <mxGeometry relative="1" as="geometry" />
        </mxCell>
        <mxCell id="baQxyuVNijMae31wePMD-71" value="&lt;font face=&quot;Helvetica&quot;&gt;&lt;b&gt;PushServer&lt;/b&gt;&lt;/font&gt;" style="rounded=1;whiteSpace=wrap;html=1;hachureGap=4;fontFamily=Architects Daughter;fontSource=https%3A%2F%2Ffonts.googleapis.com%2Fcss%3Ffamily%3DArchitects%2BDaughter;container=0;fillColor=#dae8fc;strokeColor=#6c8ebf;" vertex="1" parent="1">
          <mxGeometry x="80" y="672" width="90" height="30" as="geometry" />
        </mxCell>
        <mxCell id="baQxyuVNijMae31wePMD-76" style="edgeStyle=orthogonalEdgeStyle;rounded=0;hachureGap=4;orthogonalLoop=1;jettySize=auto;html=1;exitX=0.5;exitY=0;exitDx=0;exitDy=0;entryX=0.5;entryY=1;entryDx=0;entryDy=0;fontFamily=Architects Daughter;fontSource=https%3A%2F%2Ffonts.googleapis.com%2Fcss%3Ffamily%3DArchitects%2BDaughter;" edge="1" parent="1" source="baQxyuVNijMae31wePMD-72" target="baQxyuVNijMae31wePMD-36">
          <mxGeometry relative="1" as="geometry" />
        </mxCell>
        <mxCell id="baQxyuVNijMae31wePMD-72" value="&lt;font face=&quot;Helvetica&quot;&gt;&lt;b&gt;PushServer&lt;/b&gt;&lt;/font&gt;" style="rounded=1;whiteSpace=wrap;html=1;hachureGap=4;fontFamily=Architects Daughter;fontSource=https%3A%2F%2Ffonts.googleapis.com%2Fcss%3Ffamily%3DArchitects%2BDaughter;container=0;fillColor=#dae8fc;strokeColor=#6c8ebf;" vertex="1" parent="1">
          <mxGeometry x="652" y="672" width="90" height="30" as="geometry" />
        </mxCell>
        <mxCell id="baQxyuVNijMae31wePMD-73" value="" style="strokeWidth=1;html=1;shape=mxgraph.flowchart.annotation_2;align=left;labelPosition=right;pointerEvents=1;hachureGap=4;fontFamily=Architects Daughter;fontSource=https%3A%2F%2Ffonts.googleapis.com%2Fcss%3Ffamily%3DArchitects%2BDaughter;" vertex="1" parent="1">
          <mxGeometry x="-30" y="200" width="30" height="420" as="geometry" />
        </mxCell>
        <mxCell id="baQxyuVNijMae31wePMD-77" value="&lt;font face=&quot;Helvetica&quot;&gt;&lt;b&gt;Retrieval&amp;nbsp;&lt;/b&gt;&lt;/font&gt;&lt;b style=&quot;font-family: Helvetica; background-color: transparent; color: light-dark(rgb(0, 0, 0), rgb(255, 255, 255));&quot;&gt;Server&lt;/b&gt;" style="rounded=1;whiteSpace=wrap;html=1;hachureGap=4;fontFamily=Architects Daughter;fontSource=https%3A%2F%2Ffonts.googleapis.com%2Fcss%3Ffamily%3DArchitects%2BDaughter;fillColor=#dae8fc;strokeColor=#6c8ebf;verticalAlign=top;" vertex="1" parent="1">
          <mxGeometry x="585" y="200" width="330" height="120" as="geometry" />
        </mxCell>
        <mxCell id="baQxyuVNijMae31wePMD-78" value="&lt;font face=&quot;Helvetica&quot;&gt;&lt;b&gt;RetrievalProxy&lt;/b&gt;&lt;/font&gt;" style="rounded=1;whiteSpace=wrap;html=1;hachureGap=4;fontFamily=Architects Daughter;fontSource=https%3A%2F%2Ffonts.googleapis.com%2Fcss%3Ffamily%3DArchitects%2BDaughter;" vertex="1" parent="1">
          <mxGeometry x="712.5" y="230" width="95" height="30" as="geometry" />
        </mxCell>
        <mxCell id="baQxyuVNijMae31wePMD-79" value="&lt;font face=&quot;Helvetica&quot;&gt;&lt;b&gt;KNN&amp;nbsp;&lt;/b&gt;&lt;/font&gt;&lt;div&gt;&lt;font face=&quot;Helvetica&quot;&gt;&lt;b&gt;Server&lt;/b&gt;&lt;/font&gt;&lt;/div&gt;" style="rounded=1;whiteSpace=wrap;html=1;hachureGap=4;fontFamily=Architects Daughter;fontSource=https%3A%2F%2Ffonts.googleapis.com%2Fcss%3Ffamily%3DArchitects%2BDaughter;" vertex="1" parent="1">
          <mxGeometry x="605" y="277" width="70" height="30" as="geometry" />
        </mxCell>
        <mxCell id="baQxyuVNijMae31wePMD-80" value="&lt;font face=&quot;Helvetica&quot;&gt;&lt;b&gt;Creative Server&lt;/b&gt;&lt;/font&gt;" style="rounded=1;whiteSpace=wrap;html=1;hachureGap=4;fontFamily=Architects Daughter;fontSource=https%3A%2F%2Ffonts.googleapis.com%2Fcss%3Ffamily%3DArchitects%2BDaughter;" vertex="1" parent="1">
          <mxGeometry x="680.5" y="277" width="70" height="30" as="geometry" />
        </mxCell>
        <mxCell id="baQxyuVNijMae31wePMD-81" value="&lt;div&gt;&lt;font face=&quot;Helvetica&quot;&gt;&lt;b&gt;Pacing&lt;/b&gt;&lt;/font&gt;&lt;/div&gt;&lt;font face=&quot;Helvetica&quot;&gt;&lt;b&gt;Server&lt;/b&gt;&lt;/font&gt;" style="rounded=1;whiteSpace=wrap;html=1;hachureGap=4;fontFamily=Architects Daughter;fontSource=https%3A%2F%2Ffonts.googleapis.com%2Fcss%3Ffamily%3DArchitects%2BDaughter;" vertex="1" parent="1">
          <mxGeometry x="757" y="277" width="70" height="30" as="geometry" />
        </mxCell>
        <mxCell id="baQxyuVNijMae31wePMD-88" value="&lt;font face=&quot;Helvetica&quot;&gt;&lt;b&gt;Porter&lt;/b&gt;&lt;/font&gt;" style="rounded=1;whiteSpace=wrap;html=1;hachureGap=4;fontFamily=Architects Daughter;fontSource=https%3A%2F%2Ffonts.googleapis.com%2Fcss%3Ffamily%3DArchitects%2BDaughter;container=0;fillColor=#dae8fc;strokeColor=#6c8ebf;" vertex="1" parent="1">
          <mxGeometry x="485" y="672" width="90" height="30" as="geometry" />
        </mxCell>
        <mxCell id="baQxyuVNijMae31wePMD-89" value="Text" style="text;html=1;align=center;verticalAlign=middle;whiteSpace=wrap;rounded=0;fontFamily=Architects Daughter;fontSource=https%3A%2F%2Ffonts.googleapis.com%2Fcss%3Ffamily%3DArchitects%2BDaughter;" vertex="1" parent="1">
          <mxGeometry x="-90" y="735" width="60" height="30" as="geometry" />
        </mxCell>
      </root>
    </mxGraphModel>
  </diagram>
</mxfile>
